<svg id="Layer_1" data-name="Layer 1" xmlns="http://www.w3.org/2000/svg" viewBox="0 0 150 150"><defs><style>.cls-1{fill:#010101;}</style></defs><title>Administration</title><path class="cls-1" d="M45.42,28C32.8,28,27,43.94,37.08,52,40.51,42.79,47.36,36.2,56.33,33.6A13.44,13.44,0,0,0,45.42,28Z"/><path class="cls-1" d="M19.35,49.47a27.84,27.84,0,0,0,2,4.74l-4.14,4.14a2.85,2.85,0,0,0,0,4l7.3,7.31a2.86,2.86,0,0,0,2,.83,2.9,2.9,0,0,0,2-.83l4.14-4.15c.62.33,1.31.53,2,.81v-.14a42.68,42.68,0,0,1,1.08-9.59,18,18,0,1,1,25.4-24,31.41,31.41,0,0,1,10.18.3,27.12,27.12,0,0,0-1.76-4.23l4.14-4.15a2.84,2.84,0,0,0,0-4l-7.3-7.31a2.86,2.86,0,0,0-4,0l-4.15,4.15a27,27,0,0,0-4.74-2V9.53a2.85,2.85,0,0,0-2.85-2.85H40.25A2.86,2.86,0,0,0,37.4,9.53V15.4a27.34,27.34,0,0,0-4.74,2l-4.14-4.14a2.85,2.85,0,0,0-4,0l-7.31,7.31a2.84,2.84,0,0,0,0,4l4.14,4.15a26.92,26.92,0,0,0-2,4.73H13.5a2.85,2.85,0,0,0-2.85,2.86V46.62a2.85,2.85,0,0,0,2.85,2.85Z"/><path class="cls-1" d="M108.85,104.76A14.67,14.67,0,1,0,94.06,79.43a53,53,0,0,1-6.28,15A44,44,0,0,1,108.85,104.76Z"/><path class="cls-1" d="M139.35,86.32a3.08,3.08,0,0,0-3.08-3.08H130a29.45,29.45,0,0,0-2.13-5.11l4.48-4.48a3.08,3.08,0,0,0,0-4.35l-7.88-7.88a3.08,3.08,0,0,0-4.35,0l-4.49,4.48a28.35,28.35,0,0,0-5.11-2.12V57.45a3.06,3.06,0,0,0-3.07-3.07H96.26a3,3,0,0,0-1.94.74,42.26,42.26,0,0,1,1.45,11.1,53,53,0,0,1-.57,7.61,19,19,0,0,1,6.63-1.25,19.28,19.28,0,0,1,10.42,35.52,44.14,44.14,0,0,1,9,15,3.23,3.23,0,0,0,1,.19,3.07,3.07,0,0,0,2.17-.9l7.89-7.88a3.1,3.1,0,0,0,0-4.35l-4.49-4.48a29.45,29.45,0,0,0,2.13-5.11h6.32a3.07,3.07,0,0,0,3.08-3.08Z"/><path class="cls-1" d="M115,125.85a37.24,37.24,0,0,0-32-25C78.08,106,72,109.25,65.19,109.25S52.3,106,47.42,100.8a37.24,37.24,0,0,0-32,25l-2.64,7.78a7.34,7.34,0,0,0,6.94,9.69h90.93a7.34,7.34,0,0,0,6.94-9.69Z"/><path class="cls-1" d="M41.48,66.22c0,17.44,10.61,36.16,23.71,36.16S88.9,83.66,88.9,66.22C88.9,30.06,41.48,30,41.48,66.22Z"/></svg>