<svg id="Layer_1" data-name="Layer 1" xmlns="http://www.w3.org/2000/svg" viewBox="0 0 150 150"><defs><style>.cls-1{fill:#010101;}</style></defs><title>Student</title><g id="Layer_2" data-name="Layer 2"><path class="cls-1" d="M33,29.89c1.33.75,10.29,5.08,14.62,7.17,0,1.68,0,4.58.11,4.63.48,4.16,1.3,8.79,1.54,10.09-.4.22-2.42,1.55-2.42,5.66v.4c.87,11.44,5.42,6.51,6.36,11.52,1.56,8.33,8.93,14.36,13.52,16.44A20.86,20.86,0,0,0,75,87.67a20.86,20.86,0,0,0,8.26-1.87c4.59-2.08,12-8.11,13.52-16.44.94-5,5.49-.08,6.36-11.52v-.4c0-4.11-2-5.44-2.42-5.66.24-1.3,1.06-5.92,1.54-10.09.06,0,.09-2.95.11-4.63l9.29-4.5v11a2.93,2.93,0,0,0-1.48,2.51,2.89,2.89,0,0,0,1.19,2.31s-1.26,7.09-1.67,9.18,7.2,1.67,6.86,0-1.67-9.18-1.67-9.18a2.84,2.84,0,0,0-.29-4.82V31.11c1.17-.58,2.05-1,2.39-1.22,1-.53,1.45-1.21,1.35-1.91.12-.73-.41-1.52-1.83-2.22-10.18-5-36.12-17.68-38.69-18.9A7.86,7.86,0,0,0,75,6a7.86,7.86,0,0,0-2.82.83c-2.57,1.22-28.51,13.92-38.69,18.9-1.42.7-2,1.49-1.83,2.22C31.56,28.68,32.06,29.36,33,29.89Z"/><path class="cls-1" d="M109.54,101.44C104.75,99.72,96.42,94.74,95,94a2.55,2.55,0,0,0-1.26-.34,2.5,2.5,0,0,0-2.26,1.44c-4,6.61-11.27,25.82-16.38,26.18h-.18c-5.11-.36-12.43-19.57-16.38-26.18a2.5,2.5,0,0,0-2.26-1.44A2.55,2.55,0,0,0,55,94c-1.43.77-9.76,5.75-14.55,7.47-16.07,5.8-23.29,11.71-23.29,15.74V144H132.83V117.18C132.83,113.15,125.61,107.24,109.54,101.44Z"/></g></svg>