<svg id="Layer_1" data-name="Layer 1" xmlns="http://www.w3.org/2000/svg" viewBox="0 0 150 150"><defs><style>.cls-1{fill:#010101;}</style></defs><title>Attendance</title><path class="cls-1" d="M3,121.8c.87-5.57,1.5-11.19,2.67-16.69a115.33,115.33,0,0,1,4-13.43c1.79-5.23,5.79-8.2,10.89-10,6.55-2.32,13.33-4.27,18.9-9.3C41,79.3,43,85.93,50.2,89c6.8,2.95,13.2,1.43,19-4.17l-17.11,34.9c6.28,2.2,12.48,4.09,18.45,6.54s11.8,5.62,16.19,11.83c-5.42.89-10.38,1.77-15.35,2.51-21.43,3.22-42.08-.46-62.39-7-2.82-.92-5-2.35-6-5.26Z"/><path class="cls-1" d="M81.9,31.85a54.64,54.64,0,0,0-.81,5.8c-.14,3.28.66,6.78-.2,9.83-2.6,9.17-5.29,18.39-13,25-8.14,7-16.83,7.16-24.56-.22a35.81,35.81,0,0,1-7.27-10,77.38,77.38,0,0,1-5.1-14.69c-.56-2.22.36-4.79.53-7.21a14.72,14.72,0,0,0-.08-3.51C29.13,24.51,34.07,14.55,45.57,9.46a16.9,16.9,0,0,1,9.16-1.08,74.2,74.2,0,0,1,14.39,4.06C77.67,15.75,81.72,22.29,81.9,31.85Z"/><path class="cls-1" d="M147.05,72.65c-22.08,17.54-34.11,42-46.25,67.51-7.76-14.49-20.08-22.5-35.16-27.31L77.08,89.5l24,21.59C114.19,96.35,127.81,81.07,147.05,72.65Z"/><path class="cls-1" d="M70.61,80.93l1.18-7.24c6.3,2.67,12.58,5.58,19,8,6,2.26,9.84,6.33,11.45,12.4.33,1.21-.61,2.77-.92,4L73.22,77.13l-2.31,4.08Z"/></svg>