<svg id="Layer_1" data-name="Layer 1" xmlns="http://www.w3.org/2000/svg" viewBox="0 0 150 150"><defs><style>.cls-1{fill:#010101;}</style></defs><title>Complaints</title><path class="cls-1" d="M117.47,15.35H32.52A22.65,22.65,0,0,0,9.87,38V83.63a22.65,22.65,0,0,0,22.65,22.65h23.3l15,25.94a4.85,4.85,0,0,0,8.4,0l15-25.94h23.29a22.65,22.65,0,0,0,22.66-22.65V38A22.65,22.65,0,0,0,117.47,15.35ZM80.82,84.69a5.82,5.82,0,0,1-11.64,0h0a5.82,5.82,0,0,1,11.64,0Zm0-16.36a5.82,5.82,0,0,1-11.64,0V32.58a5.82,5.82,0,0,1,11.64,0h0Z"/></svg>