<svg id="Layer_1" data-name="Layer 1" xmlns="http://www.w3.org/2000/svg" viewBox="0 0 150 150"><defs><style>.cls-1{fill:#010101;}</style></defs><title>Front Office</title><path class="cls-1" d="M81,15.36,16.87,5.61A10.36,10.36,0,0,0,8.58,7.89,10.45,10.45,0,0,0,5,15.71v123a5.86,5.86,0,0,0,5.84,5.84h19V113.88A10.19,10.19,0,0,1,40,103.66H54.57a10.19,10.19,0,0,1,10.22,10.22v30.64h24.8V25.46A10.23,10.23,0,0,0,81,15.36ZM37.06,90.53H28.31a4.38,4.38,0,1,1,0-8.75h8.75a4.38,4.38,0,1,1,0,8.75Zm0-17.51H28.31a4.38,4.38,0,1,1,0-8.75h8.75a4.38,4.38,0,1,1,0,8.75Zm0-17.51H28.31a4.38,4.38,0,1,1,0-8.75h8.75a4.38,4.38,0,1,1,0,8.75Zm0-17.51H28.31a4.38,4.38,0,1,1,0-8.75h8.75a4.38,4.38,0,1,1,0,8.75ZM66.25,90.53H57.49a4.38,4.38,0,1,1,0-8.75h8.76a4.38,4.38,0,0,1,0,8.75Zm0-17.51H57.49a4.38,4.38,0,1,1,0-8.75h8.76a4.38,4.38,0,0,1,0,8.75Zm0-17.51H57.49a4.38,4.38,0,1,1,0-8.75h8.76a4.38,4.38,0,0,1,0,8.75Zm0-17.51H57.49a4.38,4.38,0,1,1,0-8.75h8.76a4.38,4.38,0,0,1,0,8.75Z"/><path class="cls-1" d="M137,67.72,95.43,59v85.5h39.39A10.24,10.24,0,0,0,145,134.3V77.7A10.17,10.17,0,0,0,137,67.72ZM123.15,127h-8.76a4.38,4.38,0,0,1,0-8.76h8.76a4.38,4.38,0,0,1,0,8.76Zm0-17.51h-8.76a4.38,4.38,0,0,1,0-8.76h8.76a4.38,4.38,0,0,1,0,8.76Zm0-17.51h-8.76a4.38,4.38,0,0,1,0-8.76h8.76a4.38,4.38,0,0,1,0,8.76Z"/></svg>