<svg id="Layer_1" data-name="Layer 1" xmlns="http://www.w3.org/2000/svg" viewBox="0 0 150 150"><title>Bank Management</title><path d="M69.06,138c.89-8.68,1.82-17.35,2.65-26,.18-1.87,0-3.78,0-6.21-2.75,1.09-4.63,2.19-6.64,2.51-1.24.2-3.71-.61-3.83-1.28a21.9,21.9,0,0,1,.12-7.53c.08-.47,3.11-1.22,3.86-.64,7.63,5.9,14.52,2,21.27-1.46,3.85,3.1,4.6,6,2.64,9.32-1.86,3.18-2,3.19-10.13.19.55,5.44,1.09,10.45,1.54,15.48.47,5.21.84,10.43,1.25,15.65Z"/><path d="M90,90.91c3.17,9.28,11.25,10.11,18.66,12a99.37,99.37,0,0,0,10.1,2.08c13.82,1.94,21,10.57,24,23.52.62,2.69,1,5.44,1.54,8.56H88.11c.91-5.8,1.87-11.49,2.67-17.2.76-5.37,1.63-10.75,1.88-16.16.09-1.79-1.51-3.71-2.52-5.47-.91-1.59-2.08-3-3.25-4.71-8.43,4.66-16.67,4.64-24.41-.82-6.47,7.2-4,15.42-2.8,23.4,1,6.93,2.35,13.81,3.59,21H5.74c-.82-15.76,9.43-29.19,23-31.75,7-1.32,13.88-3.32,20.88-4.66,5.4-1,7.74-4.63,8.8-9.41a5.25,5.25,0,0,0-.94-3.52C53.36,81.22,49,74.9,44.89,68.41c-3.74-5.92-3.48-8.52.5-13.83A5.22,5.22,0,0,0,46,51.66c0-3.59,0-7.18-.08-10.76-.4-11.69,5.63-19.1,15.7-23.95,2-.95,3.61-2.52,5.52-3.6,1.16-.66,2.6-1.43,3.82-1.3,10.27,1.07,19.55,4.68,27.18,11.78,4.84,4.51,6.45,10.55,6.7,16.92.16,3.83-.26,7.68-.27,11.53,0,1,.24,2.52.94,3.08,2.61,2.1,3.27,4.78,1.8,7.42-4.68,8.4-9.65,16.64-14.58,24.9A23.39,23.39,0,0,1,90,90.91ZM51.85,56.6c-6.47,1.2-7.89,3.11-5,8,4.65,7.82,9.44,15.7,15.23,22.68,7.11,8.57,18.78,8.54,26,0,5.43-6.42,9.76-13.8,14.3-20.93,3.89-6.11,3.14-7.61-3.94-8.8C99,54.3,99.57,51,100,48.84c-8.06-1.5-15.6-2.65-23-4.35s-15-3.14-22.7-.94c-2.87.82-3.91,2-3.23,5A66.67,66.67,0,0,1,51.85,56.6Z"/></svg>