<svg id="Layer_1" data-name="Layer 1" xmlns="http://www.w3.org/2000/svg" viewBox="0 0 150 150"><defs><style>.cls-1{fill:#231f20;}</style></defs><title>Organization</title><path class="cls-1" d="M138.66,90.54H126.77V71.78h0v-.3H77.38v-12H88.64a2.84,2.84,0,0,0,2.84-2.84V30.09a2.84,2.84,0,0,0-2.84-2.84H62.12a2.85,2.85,0,0,0-2.85,2.84V56.62a2.85,2.85,0,0,0,2.85,2.84H73.38v12H21v.3h-.93V90.54H11.34a2.85,2.85,0,0,0-2.85,2.84v26.53a2.85,2.85,0,0,0,2.85,2.84H37.86a2.85,2.85,0,0,0,2.85-2.84V93.38a2.85,2.85,0,0,0-2.85-2.84H24.07V75.48H73.38V90.54H62.12a2.85,2.85,0,0,0-2.85,2.84v26.53a2.85,2.85,0,0,0,2.85,2.84H88.64a2.84,2.84,0,0,0,2.84-2.84V93.38a2.84,2.84,0,0,0-2.84-2.84H77.38V75.48h45.39V90.54H112.14a2.85,2.85,0,0,0-2.85,2.84v26.53a2.85,2.85,0,0,0,2.85,2.84h26.52a2.85,2.85,0,0,0,2.85-2.84V93.38A2.85,2.85,0,0,0,138.66,90.54Z"/></svg>