<svg id="Layer_1" data-name="Layer 1" xmlns="http://www.w3.org/2000/svg" viewBox="0 0 150 150"><title>academic </title><path d="M17.68,108c-3.06-4.24-3.64-8.66-1-13.46.52-1,.12-2.71-.39-3.86-2.51-5.68-1-11.51,4.35-14.32C28,72.49,35.47,68.89,43.13,65c2.94,9.37,10.51,12.18,18.93,14A56.8,56.8,0,0,0,94.33,77c9.8-3.56,12.67-7.77,13-18.08,0-.84.17-1.69.4-3.83,1.69,1.49,3.27,2.19,3.56,3.25a15.64,15.64,0,0,1-7.83,17.87c-8,4.25-15.88,8.62-24,12.66a11.47,11.47,0,0,1-6.61,1.06c-15.36-2.62-30.68-5.49-46-8.3-2.95-.54-5.64-.67-6.31,3.23C20,88.53,22,90.31,25.21,91c16.55,3.36,33.1,6.72,49.69,9.91a7.93,7.93,0,0,0,4.8-1c16-8.6,32-17.32,48-26a8.13,8.13,0,0,1,2.71-1.36,27,27,0,0,1,4.64.32c-.77,1.3-1.21,3.19-2.35,3.82-14,7.82-28.37,15-42,23.31-8.72,5.32-16.89,7.24-27,4.43-12-3.36-24.52-5-36.76-7.67-3.36-.73-6-.61-6.62,3.25-.54,3.5,1.66,5.32,5,6l32.17,6.17c5,1,10.07,1.7,15,2.94a11,11,0,0,0,8.7-1.22c15.56-8.59,31.22-17,46.84-25.49.64-.34,1.29-1,1.92-1,1.68.06,3.35.4,5,.63-.82,1.41-1.28,3.46-2.5,4.14-14.54,8-29.46,15.41-43.7,23.92-7.71,4.61-14.83,5.47-23.39,3.33-12.7-3.17-25.69-5.16-38.53-7.8-3-.62-5.43-.45-6,3-.5,3.25.68,5.66,4.38,6.33C37.88,123.15,50.66,124.81,63,128c10.58,2.77,19.2.6,28.24-4.93,11.92-7.28,24.53-13.41,36.84-20,.77-.42,1.54-1.25,2.28-1.21a30.22,30.22,0,0,1,4.73.94c-.73,1.34-1.11,3.27-2.24,3.93-6.54,3.82-13.25,7.33-19.91,11-10.75,5.85-21.47,11.74-32.28,17.47a8,8,0,0,1-4.85.87Q49.9,131,24,125.58c-8.79-1.82-11.5-8.37-6.95-16.29C17.29,108.92,17.44,108.51,17.68,108Z"/><path d="M46.29,38.79c6.12,1.94,11.92,3.33,17.34,5.62a27.78,27.78,0,0,0,23,0c5.44-2.33,11.28-3.74,17.49-5.75,0,9.15.31,17.85-.22,26.5-.13,2.08-2.68,4.46-4.7,5.9-7.7,5.5-16.73,6.7-25.81,6.35A66.25,66.25,0,0,1,56.3,74.33c-7.82-2.48-10-6.23-10-14.31Z"/><path d="M22.73,29.05c7.6-2.3,14.09-4.29,20.58-6.24,9.47-2.83,18.92-5.7,28.42-8.39a11.37,11.37,0,0,1,5.89-.25c15.78,4.54,31.49,9.28,47.22,14a14.53,14.53,0,0,1,2,1.1c-15.21,4.92-30,9.51-44.56,14.5a20.74,20.74,0,0,1-14.3,0C53.38,38.76,38.6,34.18,22.73,29.05Z"/><path d="M116.11,68.22a4.43,4.43,0,0,1,.51,1.17c.37,2.79,1.29,5.72.68,8.29-.2.85-4.33.78-8.15,1.36,1-4.06,1.66-7,2.37-9.92.36-1.48,1.08-3,1.1-4.43.09-8.44,0-16.89,0-25.33a18.58,18.58,0,0,1,1-4.18l1.7.27c0,8.49-.07,17,0,25.47a69.62,69.62,0,0,0,.85,7.45Z"/><path d="M116.27,68.37v-11l16.22,2.21.52,1.3-16.9,7.3Z"/></svg>