<svg id="Layer_1" data-name="Layer 1" xmlns="http://www.w3.org/2000/svg" viewBox="0 0 150 150"><title>USer</title><path d="M34,80.49c2.22,1.66,4.24,3.36,6.44,4.75A34.42,34.42,0,0,0,63,90.45,34.92,34.92,0,0,0,83.6,80.93a1,1,0,0,1,1.34-.16c14.13,8.15,23.16,20.1,26.8,36.05.3,1.35.51,2.72.71,4.08a3.81,3.81,0,0,1-3.77,4.46c-.26,0-.52,0-.78,0q-48.69,0-97.38,0a6.72,6.72,0,0,1-2.59-.51A3.57,3.57,0,0,1,5.86,121,54.16,54.16,0,0,1,34,80.49Z"/><path d="M59.12,85.5A30.44,30.44,0,1,1,89.64,55.23,30.47,30.47,0,0,1,59.12,85.5Z"/><path d="M87.71,76.43a35.7,35.7,0,0,0,5.78-31.07c1.26-.32,2.49-.71,3.74-.93a24.17,24.17,0,0,1,9.16,47.45,1.07,1.07,0,0,1-.87-.27A59.52,59.52,0,0,0,88,76.58Z"/><path d="M116.86,125.36c1.73-3.89.4-7.56-.42-11.2a56.25,56.25,0,0,0-7.07-17,6.22,6.22,0,0,1-.31-.59c.31-.11.56-.21.83-.29A29.05,29.05,0,0,0,121,90a.82.82,0,0,1,1.18-.14c12.08,7.24,19.61,17.63,21.89,31.64.41,2.54-.74,3.82-3.3,3.82H116.86Z"/></svg>